<svg xmlns="http://www.w3.org/2000/svg" viewBox="0 0 448 512" fill="#7c4514">
  <path d="M224 202.66A53.34 53.34 0 1 0 277.34 256 53.38 53.38 0 0 0 224 202.66Zm124.71-41a54 54 0 0 0-30.2-30.2C297 124.57 224 124 224 124s-73 .57-94.51 7.42a54 54 0 0 0-30.2 30.2C88.57 176 88 224 88 224s.57 48 11.29 62.29a54 54 0 0 0 30.2 30.2C151 323.43 224 324 224 324s73-.57 94.51-7.42a54 54 0 0 0 30.2-30.2C359.43 272 360 224 360 224s-.57-48-11.29-62.34ZM224 286.6A62.6 62.6 0 1 1 286.6 224 62.68 62.68 0 0 1 224 286.6Zm77.71-113.19a14.62 14.62 0 1 1 14.62-14.62 14.63 14.63 0 0 1-14.62 14.62ZM398.8 80A93.73 93.73 0 0 0 368 51.2C347.9 36 313.6 32 224 32S100.1 36 80 51.2A93.73 93.73 0 0 0 49.2 80C34 100.1 30 134.4 30 224s4 123.9 19.2 144A93.73 93.73 0 0 0 80 396.8C100.1 412 134.4 416 224 416s123.9-4 144-19.2a93.73 93.73 0 0 0 30.8-30.8c15.2-20.1 19.2-54.4 19.2-144s-4-123.9-19.2-144Z"/>
</svg>